<svg class="wpe-logo-mark"
    xmlns="http://www.w3.org/2000/svg" viewBox="0 0 29.5 29.6">
    <path fill="#0ECAD4" d="M10 29.6h9.5v-7.2l-2.3-2.3h-4.9L10 22.4v7.2zm12.3-19.5L20 12.4v5l2.3 2.3h7.2v-9.5h-7.2v-.1zM19.5 0H10v7.2l2.3 2.3h4.9l2.3-2.3V0zm10.1 29.6v-7.2l-2.3-2.3h-7.2v9.5h9.5zM2.3 0L0 2.3v7.2h9.5V0H2.3zm17.8 0v7.2l2.3 2.3h7.2V0h-9.5zm-5.3 16.2c-.7 0-1.3-.6-1.3-1.3 0-.7.6-1.3 1.3-1.3s1.3.6 1.3 1.3c0 .7-.6 1.3-1.3 1.3zm-5.3-6.1H0v9.5h7.2l2.3-2.3v-7.2zm0 12.3l-2.3-2.3H0v9.5h7.2l2.3-2.3v-4.9z" />
</svg>