<svg width="60" height="60" viewBox="0 0 60 60" fill="none" xmlns="http://www.w3.org/2000/svg">
<rect width="60" height="60" rx="30" fill="url(#paint0_linear_1)"/>
<mask id="path-2-outside-1_1:8" maskUnits="userSpaceOnUse" x="13.8897" y="9" width="33" height="42" fill="black">
<rect fill="white" x="13.8897" y="9" width="33" height="42"/>
<path d="M21.9922 50C20.4746 49.9691 18.9845 49.589 17.6375 48.8891C16.6012 48.3264 15.7619 47.46 15.2325 46.4063C14.8623 45.6369 14.789 44.758 15.0268 43.938C15.2646 43.118 15.7967 42.4146 16.5211 41.9627C17.3223 41.4839 18.2661 41.3018 19.1879 41.4479C20.1097 41.5941 20.9508 42.0594 21.5645 42.7626C21.988 43.2599 22.3777 43.785 22.731 44.3345L22.7865 44.4178C24.2307 41.0851 24.8861 37.6358 25.5637 34.0199C25.8803 32.3535 26.2136 30.6372 26.6246 28.932L23.4975 28.6876C23.2828 28.6709 23.0822 28.5744 22.9351 28.4171C22.7881 28.2598 22.7053 28.0531 22.7032 27.8378C22.6753 27.5195 22.7153 27.1989 22.8207 26.8973C22.926 26.5957 23.0942 26.3198 23.3142 26.0881C23.5589 25.8923 23.8424 25.7505 24.1458 25.672C24.4493 25.5935 24.7659 25.5801 25.0749 25.6327L25.9692 25.716C26.3424 25.7497 26.7153 25.6491 27.0209 25.4322C27.3264 25.2153 27.5444 24.8963 27.6355 24.5329C27.7744 23.9774 27.9077 23.422 28.0466 22.8277C28.5194 20.4855 29.2207 18.1954 30.1406 15.9902C32.4957 10.8356 36.7559 8.91935 42.1438 10.5857C43.203 10.9151 44.1595 11.5119 44.921 12.3187C45.2864 12.7121 45.5691 13.1749 45.7523 13.6796C45.9354 14.1844 46.0154 14.7208 45.9874 15.257C45.9616 15.7248 45.8421 16.1827 45.636 16.6034C45.4299 17.0242 45.1414 17.3993 44.7877 17.7065C44.4103 18.0181 43.9752 18.2521 43.5071 18.3951C43.0391 18.5381 42.5475 18.5872 42.0604 18.5396C41.5209 18.499 40.9948 18.3519 40.5125 18.1069C40.0301 17.8619 39.601 17.5238 39.2499 17.1122C38.7513 16.4675 38.3299 15.7665 37.9946 15.0237C37.8613 14.7626 37.7335 14.4682 37.5947 14.2405C37.5447 14.1516 37.4947 14.0628 37.4502 13.9683L37.0948 14.0072L34.6064 25.5327L37.7502 25.7326C37.9428 25.744 38.1259 25.8206 38.2693 25.9498C38.4126 26.079 38.5077 26.2532 38.5389 26.4436C38.6296 26.7628 38.6432 27.099 38.5785 27.4244C38.5138 27.7498 38.3727 28.0553 38.1668 28.3155C37.9286 28.5303 37.6425 28.6852 37.3324 28.7674C37.0223 28.8495 36.6971 28.8564 36.3838 28.7876L35.9617 28.7432L35.4062 28.6876C34.2231 28.5987 33.8065 28.9709 33.5344 30.3539C33.4177 30.9538 33.3011 31.5537 33.19 32.1536C32.6679 34.8641 32.1346 37.6636 31.3848 40.3686C30.8351 42.3919 29.961 44.3128 28.7964 46.0563C27.0246 48.6614 24.6528 50 21.9922 50ZM18.5263 42.4904C18.0259 42.4879 17.535 42.6265 17.1099 42.8903C16.6148 43.1954 16.2502 43.6728 16.0861 44.2307C15.922 44.7886 15.9701 45.3874 16.2212 45.9119C16.6411 46.7532 17.3051 47.4482 18.1263 47.906C22.0145 49.8167 25.4915 48.9391 27.8855 45.4231C28.9844 43.783 29.8081 41.9743 30.3239 40.0687C31.0626 37.4025 31.5959 34.6253 32.1069 31.937L32.4568 30.1373C32.7234 28.7765 33.29 27.4101 35.5006 27.5767L36.1005 27.6378L36.5115 27.6823C36.9448 27.7267 37.2558 27.6823 37.378 27.5489C37.5043 27.3307 37.544 27.073 37.4891 26.8269L34.262 26.6214C34.141 26.6106 34.0236 26.5743 33.9176 26.5149C33.8116 26.4555 33.7193 26.3744 33.6469 26.2768C33.5745 26.1792 33.5236 26.0674 33.4975 25.9487C33.4714 25.83 33.4707 25.7072 33.4955 25.5882L36.1838 12.9963L38.1279 12.7741L38.2945 13.1407C38.3834 13.3351 38.4723 13.524 38.5722 13.6962C38.6722 13.8684 38.8555 14.2516 38.9944 14.5127C39.2923 15.1768 39.665 15.8048 40.1053 16.3845C40.6245 16.987 41.3617 17.3586 42.1549 17.4176C42.84 17.4908 43.5264 17.2912 44.0656 16.8622C44.307 16.6535 44.5041 16.3985 44.6453 16.1123C44.7865 15.826 44.8689 15.5145 44.8876 15.1959C44.9047 14.8066 44.8437 14.4178 44.7082 14.0525C44.5728 13.6872 44.3656 13.3526 44.0989 13.0685C43.4705 12.4102 42.6849 11.9228 41.816 11.6521C36.9615 10.1469 33.2733 11.8077 31.1515 16.4567C30.2645 18.5972 29.5856 20.8181 29.1241 23.0887C28.9908 23.6442 28.852 24.2385 28.7131 24.8106C28.5602 25.4311 28.1894 25.9759 27.6685 26.346C27.1475 26.7161 26.511 26.8867 25.8748 26.8269L24.9805 26.7436C24.6661 26.6785 24.3386 26.7404 24.0696 26.9157C23.9091 27.1069 23.8224 27.3493 23.8252 27.5989L27.0412 27.8322C27.165 27.8416 27.2852 27.8778 27.3935 27.9383C27.5019 27.9987 27.5958 28.0821 27.6687 28.1825C27.7417 28.2829 27.7919 28.398 27.8159 28.5197C27.8399 28.6415 27.8371 28.767 27.8077 28.8876C27.3689 30.665 27.0246 32.4702 26.6968 34.2198C25.9914 37.8913 25.2694 41.6906 23.6308 45.3287C23.5694 45.4631 23.4737 45.579 23.3532 45.6645C23.2327 45.75 23.0917 45.8021 22.9446 45.8157C22.7974 45.8292 22.6494 45.8036 22.5153 45.7415C22.3812 45.6794 22.2659 45.583 22.1811 45.462L21.8423 44.9621C21.5164 44.4567 21.1564 43.9742 20.7647 43.518C20.4863 43.1972 20.1425 42.9395 19.7565 42.7623C19.3705 42.5851 18.951 42.4924 18.5263 42.4904Z"/>
</mask>
<path d="M21.9922 50C20.4746 49.9691 18.9845 49.589 17.6375 48.8891C16.6012 48.3264 15.7619 47.46 15.2325 46.4063C14.8623 45.6369 14.789 44.758 15.0268 43.938C15.2646 43.118 15.7967 42.4146 16.5211 41.9627C17.3223 41.4839 18.2661 41.3018 19.1879 41.4479C20.1097 41.5941 20.9508 42.0594 21.5645 42.7626C21.988 43.2599 22.3777 43.785 22.731 44.3345L22.7865 44.4178C24.2307 41.0851 24.8861 37.6358 25.5637 34.0199C25.8803 32.3535 26.2136 30.6372 26.6246 28.932L23.4975 28.6876C23.2828 28.6709 23.0822 28.5744 22.9351 28.4171C22.7881 28.2598 22.7053 28.0531 22.7032 27.8378C22.6753 27.5195 22.7153 27.1989 22.8207 26.8973C22.926 26.5957 23.0942 26.3198 23.3142 26.0881C23.5589 25.8923 23.8424 25.7505 24.1458 25.672C24.4493 25.5935 24.7659 25.5801 25.0749 25.6327L25.9692 25.716C26.3424 25.7497 26.7153 25.6491 27.0209 25.4322C27.3264 25.2153 27.5444 24.8963 27.6355 24.5329C27.7744 23.9774 27.9077 23.422 28.0466 22.8277C28.5194 20.4855 29.2207 18.1954 30.1406 15.9902C32.4957 10.8356 36.7559 8.91935 42.1438 10.5857C43.203 10.9151 44.1595 11.5119 44.921 12.3187C45.2864 12.7121 45.5691 13.1749 45.7523 13.6796C45.9354 14.1844 46.0154 14.7208 45.9874 15.257C45.9616 15.7248 45.8421 16.1827 45.636 16.6034C45.4299 17.0242 45.1414 17.3993 44.7877 17.7065C44.4103 18.0181 43.9752 18.2521 43.5071 18.3951C43.0391 18.5381 42.5475 18.5872 42.0604 18.5396C41.5209 18.499 40.9948 18.3519 40.5125 18.1069C40.0301 17.8619 39.601 17.5238 39.2499 17.1122C38.7513 16.4675 38.3299 15.7665 37.9946 15.0237C37.8613 14.7626 37.7335 14.4682 37.5947 14.2405C37.5447 14.1516 37.4947 14.0628 37.4502 13.9683L37.0948 14.0072L34.6064 25.5327L37.7502 25.7326C37.9428 25.744 38.1259 25.8206 38.2693 25.9498C38.4126 26.079 38.5077 26.2532 38.5389 26.4436C38.6296 26.7628 38.6432 27.099 38.5785 27.4244C38.5138 27.7498 38.3727 28.0553 38.1668 28.3155C37.9286 28.5303 37.6425 28.6852 37.3324 28.7674C37.0223 28.8495 36.6971 28.8564 36.3838 28.7876L35.9617 28.7432L35.4062 28.6876C34.2231 28.5987 33.8065 28.9709 33.5344 30.3539C33.4177 30.9538 33.3011 31.5537 33.19 32.1536C32.6679 34.8641 32.1346 37.6636 31.3848 40.3686C30.8351 42.3919 29.961 44.3128 28.7964 46.0563C27.0246 48.6614 24.6528 50 21.9922 50ZM18.5263 42.4904C18.0259 42.4879 17.535 42.6265 17.1099 42.8903C16.6148 43.1954 16.2502 43.6728 16.0861 44.2307C15.922 44.7886 15.9701 45.3874 16.2212 45.9119C16.6411 46.7532 17.3051 47.4482 18.1263 47.906C22.0145 49.8167 25.4915 48.9391 27.8855 45.4231C28.9844 43.783 29.8081 41.9743 30.3239 40.0687C31.0626 37.4025 31.5959 34.6253 32.1069 31.937L32.4568 30.1373C32.7234 28.7765 33.29 27.4101 35.5006 27.5767L36.1005 27.6378L36.5115 27.6823C36.9448 27.7267 37.2558 27.6823 37.378 27.5489C37.5043 27.3307 37.544 27.073 37.4891 26.8269L34.262 26.6214C34.141 26.6106 34.0236 26.5743 33.9176 26.5149C33.8116 26.4555 33.7193 26.3744 33.6469 26.2768C33.5745 26.1792 33.5236 26.0674 33.4975 25.9487C33.4714 25.83 33.4707 25.7072 33.4955 25.5882L36.1838 12.9963L38.1279 12.7741L38.2945 13.1407C38.3834 13.3351 38.4723 13.524 38.5722 13.6962C38.6722 13.8684 38.8555 14.2516 38.9944 14.5127C39.2923 15.1768 39.665 15.8048 40.1053 16.3845C40.6245 16.987 41.3617 17.3586 42.1549 17.4176C42.84 17.4908 43.5264 17.2912 44.0656 16.8622C44.307 16.6535 44.5041 16.3985 44.6453 16.1123C44.7865 15.826 44.8689 15.5145 44.8876 15.1959C44.9047 14.8066 44.8437 14.4178 44.7082 14.0525C44.5728 13.6872 44.3656 13.3526 44.0989 13.0685C43.4705 12.4102 42.6849 11.9228 41.816 11.6521C36.9615 10.1469 33.2733 11.8077 31.1515 16.4567C30.2645 18.5972 29.5856 20.8181 29.1241 23.0887C28.9908 23.6442 28.852 24.2385 28.7131 24.8106C28.5602 25.4311 28.1894 25.9759 27.6685 26.346C27.1475 26.7161 26.511 26.8867 25.8748 26.8269L24.9805 26.7436C24.6661 26.6785 24.3386 26.7404 24.0696 26.9157C23.9091 27.1069 23.8224 27.3493 23.8252 27.5989L27.0412 27.8322C27.165 27.8416 27.2852 27.8778 27.3935 27.9383C27.5019 27.9987 27.5958 28.0821 27.6687 28.1825C27.7417 28.2829 27.7919 28.398 27.8159 28.5197C27.8399 28.6415 27.8371 28.767 27.8077 28.8876C27.3689 30.665 27.0246 32.4702 26.6968 34.2198C25.9914 37.8913 25.2694 41.6906 23.6308 45.3287C23.5694 45.4631 23.4737 45.579 23.3532 45.6645C23.2327 45.75 23.0917 45.8021 22.9446 45.8157C22.7974 45.8292 22.6494 45.8036 22.5153 45.7415C22.3812 45.6794 22.2659 45.583 22.1811 45.462L21.8423 44.9621C21.5164 44.4567 21.1564 43.9742 20.7647 43.518C20.4863 43.1972 20.1425 42.9395 19.7565 42.7623C19.3705 42.5851 18.951 42.4924 18.5263 42.4904Z" fill="white"/>
<path d="M21.9922 50C20.4746 49.9691 18.9845 49.589 17.6375 48.8891C16.6012 48.3264 15.7619 47.46 15.2325 46.4063C14.8623 45.6369 14.789 44.758 15.0268 43.938C15.2646 43.118 15.7967 42.4146 16.5211 41.9627C17.3223 41.4839 18.2661 41.3018 19.1879 41.4479C20.1097 41.5941 20.9508 42.0594 21.5645 42.7626C21.988 43.2599 22.3777 43.785 22.731 44.3345L22.7865 44.4178C24.2307 41.0851 24.8861 37.6358 25.5637 34.0199C25.8803 32.3535 26.2136 30.6372 26.6246 28.932L23.4975 28.6876C23.2828 28.6709 23.0822 28.5744 22.9351 28.4171C22.7881 28.2598 22.7053 28.0531 22.7032 27.8378C22.6753 27.5195 22.7153 27.1989 22.8207 26.8973C22.926 26.5957 23.0942 26.3198 23.3142 26.0881C23.5589 25.8923 23.8424 25.7505 24.1458 25.672C24.4493 25.5935 24.7659 25.5801 25.0749 25.6327L25.9692 25.716C26.3424 25.7497 26.7153 25.6491 27.0209 25.4322C27.3264 25.2153 27.5444 24.8963 27.6355 24.5329C27.7744 23.9774 27.9077 23.422 28.0466 22.8277C28.5194 20.4855 29.2207 18.1954 30.1406 15.9902C32.4957 10.8356 36.7559 8.91935 42.1438 10.5857C43.203 10.9151 44.1595 11.5119 44.921 12.3187C45.2864 12.7121 45.5691 13.1749 45.7523 13.6796C45.9354 14.1844 46.0154 14.7208 45.9874 15.257C45.9616 15.7248 45.8421 16.1827 45.636 16.6034C45.4299 17.0242 45.1414 17.3993 44.7877 17.7065C44.4103 18.0181 43.9752 18.2521 43.5071 18.3951C43.0391 18.5381 42.5475 18.5872 42.0604 18.5396C41.5209 18.499 40.9948 18.3519 40.5125 18.1069C40.0301 17.8619 39.601 17.5238 39.2499 17.1122C38.7513 16.4675 38.3299 15.7665 37.9946 15.0237C37.8613 14.7626 37.7335 14.4682 37.5947 14.2405C37.5447 14.1516 37.4947 14.0628 37.4502 13.9683L37.0948 14.0072L34.6064 25.5327L37.7502 25.7326C37.9428 25.744 38.1259 25.8206 38.2693 25.9498C38.4126 26.079 38.5077 26.2532 38.5389 26.4436C38.6296 26.7628 38.6432 27.099 38.5785 27.4244C38.5138 27.7498 38.3727 28.0553 38.1668 28.3155C37.9286 28.5303 37.6425 28.6852 37.3324 28.7674C37.0223 28.8495 36.6971 28.8564 36.3838 28.7876L35.9617 28.7432L35.4062 28.6876C34.2231 28.5987 33.8065 28.9709 33.5344 30.3539C33.4177 30.9538 33.3011 31.5537 33.19 32.1536C32.6679 34.8641 32.1346 37.6636 31.3848 40.3686C30.8351 42.3919 29.961 44.3128 28.7964 46.0563C27.0246 48.6614 24.6528 50 21.9922 50ZM18.5263 42.4904C18.0259 42.4879 17.535 42.6265 17.1099 42.8903C16.6148 43.1954 16.2502 43.6728 16.0861 44.2307C15.922 44.7886 15.9701 45.3874 16.2212 45.9119C16.6411 46.7532 17.3051 47.4482 18.1263 47.906C22.0145 49.8167 25.4915 48.9391 27.8855 45.4231C28.9844 43.783 29.8081 41.9743 30.3239 40.0687C31.0626 37.4025 31.5959 34.6253 32.1069 31.937L32.4568 30.1373C32.7234 28.7765 33.29 27.4101 35.5006 27.5767L36.1005 27.6378L36.5115 27.6823C36.9448 27.7267 37.2558 27.6823 37.378 27.5489C37.5043 27.3307 37.544 27.073 37.4891 26.8269L34.262 26.6214C34.141 26.6106 34.0236 26.5743 33.9176 26.5149C33.8116 26.4555 33.7193 26.3744 33.6469 26.2768C33.5745 26.1792 33.5236 26.0674 33.4975 25.9487C33.4714 25.83 33.4707 25.7072 33.4955 25.5882L36.1838 12.9963L38.1279 12.7741L38.2945 13.1407C38.3834 13.3351 38.4723 13.524 38.5722 13.6962C38.6722 13.8684 38.8555 14.2516 38.9944 14.5127C39.2923 15.1768 39.665 15.8048 40.1053 16.3845C40.6245 16.987 41.3617 17.3586 42.1549 17.4176C42.84 17.4908 43.5264 17.2912 44.0656 16.8622C44.307 16.6535 44.5041 16.3985 44.6453 16.1123C44.7865 15.826 44.8689 15.5145 44.8876 15.1959C44.9047 14.8066 44.8437 14.4178 44.7082 14.0525C44.5728 13.6872 44.3656 13.3526 44.0989 13.0685C43.4705 12.4102 42.6849 11.9228 41.816 11.6521C36.9615 10.1469 33.2733 11.8077 31.1515 16.4567C30.2645 18.5972 29.5856 20.8181 29.1241 23.0887C28.9908 23.6442 28.852 24.2385 28.7131 24.8106C28.5602 25.4311 28.1894 25.9759 27.6685 26.346C27.1475 26.7161 26.511 26.8867 25.8748 26.8269L24.9805 26.7436C24.6661 26.6785 24.3386 26.7404 24.0696 26.9157C23.9091 27.1069 23.8224 27.3493 23.8252 27.5989L27.0412 27.8322C27.165 27.8416 27.2852 27.8778 27.3935 27.9383C27.5019 27.9987 27.5958 28.0821 27.6687 28.1825C27.7417 28.2829 27.7919 28.398 27.8159 28.5197C27.8399 28.6415 27.8371 28.767 27.8077 28.8876C27.3689 30.665 27.0246 32.4702 26.6968 34.2198C25.9914 37.8913 25.2694 41.6906 23.6308 45.3287C23.5694 45.4631 23.4737 45.579 23.3532 45.6645C23.2327 45.75 23.0917 45.8021 22.9446 45.8157C22.7974 45.8292 22.6494 45.8036 22.5153 45.7415C22.3812 45.6794 22.2659 45.583 22.1811 45.462L21.8423 44.9621C21.5164 44.4567 21.1564 43.9742 20.7647 43.518C20.4863 43.1972 20.1425 42.9395 19.7565 42.7623C19.3705 42.5851 18.951 42.4924 18.5263 42.4904Z" stroke="white" stroke-width="0.4" mask="url(#path-2-outside-1_1:8)"/>
<defs>
<linearGradient id="paint0_linear_1" x1="-9.71602e-07" y1="0.500001" x2="60" y2="60" gradientUnits="userSpaceOnUse">
<stop stop-color="#7E5CEF"/>
<stop offset="1" stop-color="#0ECAD4"/>
</linearGradient>
</defs>
</svg>
