<svg width="21" height="24" viewBox="0 0 21 24" fill="none" xmlns="http://www.w3.org/2000/svg">
	<path d="M3 2.25H18C18.1989 2.25 18.3897 2.32902 18.5303 2.46967C18.671 2.61032 18.75 2.80109 18.75 3V21C18.75 21.1989 18.671 21.3897 18.5303 21.5303C18.3897 21.671 18.1989 21.75 18 21.75H3C2.80109 21.75 2.61032 21.671 2.46967 21.5303C2.32902 21.3897 2.25 21.1989 2.25 21V3C2.25 2.80109 2.32902 2.61032 2.46967 2.46967C2.61032 2.32902 2.80109 2.25 3 2.25ZM18 0H3C2.20435 0 1.44129 0.31607 0.87868 0.87868C0.31607 1.44129 0 2.20435 0 3V21C0 21.7956 0.31607 22.5587 0.87868 23.1213C1.44129 23.6839 2.20435 24 3 24H18C18.7956 24 19.5587 23.6839 20.1213 23.1213C20.6839 22.5587 21 21.7956 21 21V3C21 2.20435 20.6839 1.44129 20.1213 0.87868C19.5587 0.31607 18.7956 0 18 0ZM16.5 5.625H4.5V7.875H16.5V5.625ZM4.5 10.5H16.5V12.75H4.5V10.5ZM13.5 15.375H4.5V17.625H13.5V15.375Z" fill="#5C43AE"/>
</svg>
